<?xml version="1.0" encoding="UTF-8"?>
<svg xmlns="http://www.w3.org/2000/svg" viewBox="0 0 480 320" width="480" height="320" role="img">
  <defs>
    <marker id="ar" markerWidth="8" markerHeight="8" refX="7" refY="3" orient="auto"><polygon points="0 0,8 3,0 6" fill="#334155"/></marker>
  </defs>
  <rect fill="#f1f5f9" stroke="#334155" stroke-width="2" x="12" y="12" width="456" height="296" rx="6"/>
  <text x="240" y="34" text-anchor="middle" fill="#0f172a" font-size="13" font-weight="bold" font-family="Microsoft YaHei, PingFang SC, Noto Sans CJK SC, sans-serif">数据集成架构</text>
  <rect fill="#fff" stroke="#334155" x="48" y="52" width="96" height="36" rx="3"/><text x="96" y="74" text-anchor="middle" fill="#0f172a" font-size="10" font-family="Microsoft YaHei, PingFang SC, Noto Sans CJK SC, sans-serif">数据库</text>
  <rect fill="#fff" stroke="#334155" x="192" y="52" width="96" height="36" rx="3"/><text x="240" y="74" text-anchor="middle" fill="#0f172a" font-size="10" font-family="Microsoft YaHei, PingFang SC, Noto Sans CJK SC, sans-serif">缓存</text>
  <rect fill="#fff" stroke="#334155" x="336" y="52" width="96" height="36" rx="3"/><text x="384" y="74" text-anchor="middle" fill="#0f172a" font-size="10" font-family="Microsoft YaHei, PingFang SC, Noto Sans CJK SC, sans-serif">搜索</text>
  <line x1="96" y1="88" x2="240" y2="120" stroke="#94a3b8"/>
  <line x1="240" y1="88" x2="240" y2="120" stroke="#94a3b8"/>
  <line x1="384" y1="88" x2="240" y2="120" stroke="#94a3b8"/>
  <rect fill="#fef3c7" stroke="#b45309" x="168" y="124" width="144" height="40" rx="4"/>
  <text x="240" y="142" text-anchor="middle" fill="#0f172a" font-size="11" font-weight="bold" font-family="Microsoft YaHei, PingFang SC, Noto Sans CJK SC, sans-serif">事件日志</text>
  <text x="240" y="156" text-anchor="middle" fill="#64748b" font-size="9" font-family="sans-serif">Kafka</text>
  <line x1="240" y1="164" x2="240" y2="188" stroke="#334155" marker-end="url(#ar)"/>
  <line x1="168" y1="180" x2="96" y2="220" stroke="#94a3b8" marker-end="url(#ar)"/>
  <line x1="240" y1="188" x2="240" y2="220" stroke="#94a3b8" marker-end="url(#ar)"/>
  <line x1="312" y1="180" x2="384" y2="220" stroke="#94a3b8" marker-end="url(#ar)"/>
  <rect fill="#fff" stroke="#334155" x="48" y="224" width="96" height="36" rx="3"/><text x="96" y="246" text-anchor="middle" fill="#0f172a" font-size="10" font-family="Microsoft YaHei, PingFang SC, Noto Sans CJK SC, sans-serif">分析</text>
  <rect fill="#fff" stroke="#334155" x="192" y="224" width="96" height="36" rx="3"/><text x="240" y="246" text-anchor="middle" fill="#0f172a" font-size="10" font-family="Microsoft YaHei, PingFang SC, Noto Sans CJK SC, sans-serif">ML平台</text>
  <rect fill="#fff" stroke="#334155" x="336" y="224" width="96" height="36" rx="3"/><text x="384" y="246" text-anchor="middle" fill="#0f172a" font-size="10" font-family="Microsoft YaHei, PingFang SC, Noto Sans CJK SC, sans-serif">监控</text>
</svg>
