<?xml version="1.0" encoding="UTF-8"?>
<svg xmlns="http://www.w3.org/2000/svg" viewBox="0 0 520 320" width="520" height="320" role="img">
  <title>主从复制架构</title>
  <defs>
    <marker id="ah" markerWidth="8" markerHeight="8" refX="7" refY="3" orient="auto"><polygon points="0 0,8 3,0 6" fill="#334155"/></marker>
  </defs>
  <rect fill="#e2e8f0" stroke="#334155" stroke-width="2" x="6" y="6" width="508" height="308" rx="6"/>
  <text x="260" y="28" text-anchor="middle" fill="#0f172a" font-size="14" font-weight="bold" font-family="Microsoft YaHei, PingFang SC, Noto Sans CJK SC, sans-serif">主从复制架构</text>
  <line x1="6" y1="36" x2="514" y2="36" stroke="#64748b"/>
  <text x="260" y="54" text-anchor="middle" fill="#0f172a" font-size="11" font-family="Microsoft YaHei, PingFang SC, Noto Sans CJK SC, sans-serif">客户端写入</text>
  <line x1="260" y="58" x2="260" y2="78" stroke="#334155" stroke-width="1.5" marker-end="url(#ah)"/>
  <rect fill="#fff" stroke="#334155" x="200" y="82" width="120" height="44" rx="4"/>
  <text x="260" y="102" text-anchor="middle" fill="#0f172a" font-size="11" font-weight="bold" font-family="Microsoft YaHei, PingFang SC, Noto Sans CJK SC, sans-serif">主节点</text>
  <text x="260" y="118" text-anchor="middle" fill="#475569" font-size="10" font-family="sans-serif">(Leader)</text>
  <line x1="320" y1="104" x2="380" y2="104" stroke="#334155" marker-end="url(#ah)"/>
  <text x="350" y="98" text-anchor="middle" fill="#64748b" font-size="9" font-family="Microsoft YaHei, PingFang SC, Noto Sans CJK SC, sans-serif">复制日志</text>
  <rect fill="#fff" stroke="#334155" x="384" y="82" width="110" height="44" rx="4"/>
  <text x="439" y="102" text-anchor="middle" fill="#0f172a" font-size="11" font-family="Microsoft YaHei, PingFang SC, Noto Sans CJK SC, sans-serif">从节点1</text>
  <text x="439" y="118" text-anchor="middle" fill="#475569" font-size="9" font-family="sans-serif">(Follower)</text>
  <line x1="260" y1="126" x2="260" y2="158" stroke="#334155" stroke-width="1.5" marker-end="url(#ah)"/>
  <text x="228" y="146" fill="#64748b" font-size="9" font-family="Microsoft YaHei, PingFang SC, Noto Sans CJK SC, sans-serif">复制日志</text>
  <rect fill="#fff" stroke="#334155" x="200" y="162" width="120" height="40" rx="4"/>
  <text x="260" y="186" text-anchor="middle" fill="#0f172a" font-size="11" font-family="Microsoft YaHei, PingFang SC, Noto Sans CJK SC, sans-serif">从节点2</text>
  <line x1="439" y1="126" x2="439" y2="162" stroke="#334155" stroke-width="1.5" marker-end="url(#ah)"/>
  <text x="455" y="148" fill="#64748b" font-size="9" font-family="Microsoft YaHei, PingFang SC, Noto Sans CJK SC, sans-serif">复制日志</text>
  <rect fill="#fff" stroke="#334155" x="384" y="162" width="110" height="40" rx="4"/>
  <text x="439" y="186" text-anchor="middle" fill="#0f172a" font-size="11" font-family="Microsoft YaHei, PingFang SC, Noto Sans CJK SC, sans-serif">从节点3</text>
  <text x="260" y="232" text-anchor="middle" fill="#475569" font-size="11" font-family="Microsoft YaHei, PingFang SC, Noto Sans CJK SC, sans-serif">客户端可从任意节点读取</text>
</svg>
