<?xml version="1.0" encoding="UTF-8"?>
<svg xmlns="http://www.w3.org/2000/svg" viewBox="0 0 460 200" width="460" height="200" role="img">
  <title>两阶段提交（2PC）</title>
  <defs>
    <marker id="a2" markerWidth="7" markerHeight="7" refX="6" refY="2.5" orient="auto"><polygon points="0 0,7 2.5,0 5" fill="#334155"/></marker>
  </defs>
  <rect fill="#f8fafc" stroke="#334155" stroke-width="1.5" x="6" y="6" width="448" height="188" rx="6"/>
  <text x="20" y="28" fill="#1e293b" font-size="12" font-weight="bold" font-family="Microsoft YaHei, PingFang SC, Noto Sans CJK SC, sans-serif">阶段1（准备）</text>
  <rect fill="#e2e8f0" stroke="#475569" x="24" y="40" width="72" height="28" rx="3"/><text x="60" y="58" text-anchor="middle" font-size="10" fill="#0f172a" font-family="Microsoft YaHei, PingFang SC, Noto Sans CJK SC, sans-serif">协调者</text>
  <line x1="96" y1="54" x2="268" y2="54" stroke="#334155" marker-end="url(#a2)"/>
  <text x="175" y="48" text-anchor="middle" fill="#64748b" font-size="9" font-family="Microsoft YaHei, PingFang SC, Noto Sans CJK SC, sans-serif">准备</text>
  <rect fill="#fff" stroke="#334155" x="276" y="40" width="88" height="28" rx="3"/><text x="320" y="58" text-anchor="middle" font-size="10" fill="#0f172a" font-family="Microsoft YaHei, PingFang SC, Noto Sans CJK SC, sans-serif">参与者们</text>
  <line x1="268" y1="76" x2="100" y2="76" stroke="#94a3b8" marker-end="url(#a2)"/>
  <text x="180" y="88" text-anchor="middle" fill="#64748b" font-size="9" font-family="Microsoft YaHei, PingFang SC, Noto Sans CJK SC, sans-serif">准备好</text>
  <text x="20" y="112" fill="#1e293b" font-size="12" font-weight="bold" font-family="Microsoft YaHei, PingFang SC, Noto Sans CJK SC, sans-serif">阶段2（提交）</text>
  <rect fill="#e2e8f0" stroke="#475569" x="24" y="122" width="72" height="28" rx="3"/><text x="60" y="140" text-anchor="middle" font-size="10" fill="#0f172a" font-family="Microsoft YaHei, PingFang SC, Noto Sans CJK SC, sans-serif">协调者</text>
  <line x1="96" y1="136" x2="268" y2="136" stroke="#334155" marker-end="url(#a2)"/>
  <text x="175" y="130" text-anchor="middle" fill="#64748b" font-size="9" font-family="Microsoft YaHei, PingFang SC, Noto Sans CJK SC, sans-serif">提交</text>
  <rect fill="#fff" stroke="#334155" x="276" y="122" width="88" height="28" rx="3"/><text x="320" y="140" text-anchor="middle" font-size="10" fill="#0f172a" font-family="Microsoft YaHei, PingFang SC, Noto Sans CJK SC, sans-serif">参与者们</text>
  <line x1="268" y1="158" x2="100" y2="158" stroke="#94a3b8" marker-end="url(#a2)"/>
  <text x="180" y="170" text-anchor="middle" fill="#64748b" font-size="9" font-family="Microsoft YaHei, PingFang SC, Noto Sans CJK SC, sans-serif">完成</text>
</svg>
