<?xml version="1.0" encoding="UTF-8"?>
<svg xmlns="http://www.w3.org/2000/svg" viewBox="0 0 880 320" width="880" height="320">
  <title>Beijing CBD night, empty office, error logs</title>
  <defs>
    <linearGradient id="sky" x1="0%" y1="0%" x2="0%" y2="100%">
      <stop offset="0%" stop-color="#0d1b2a"/>
      <stop offset="100%" stop-color="#1b263b"/>
    </linearGradient>
    <linearGradient id="win" x1="0%" y1="0%" x2="0%" y2="100%">
      <stop offset="0%" stop-color="#ffd54f" stop-opacity="0.9"/>
      <stop offset="100%" stop-color="#ff6f00" stop-opacity="0.35"/>
    </linearGradient>
  </defs>
  <rect width="880" height="320" fill="url(#sky)"/>
  <g fill="#1c2541" stroke="#2d3e5d" stroke-width="0.5">
    <rect x="50" y="140" width="28" height="160"/>
    <rect x="95" y="100" width="38" height="200"/>
    <rect x="148" y="120" width="32" height="180"/>
    <rect x="195" y="80" width="45" height="220"/>
    <rect x="255" y="110" width="34" height="190"/>
    <rect x="305" y="60" width="52" height="240"/>
    <rect x="375" y="130" width="30" height="170"/>
    <rect x="418" y="95" width="40" height="205"/>
    <rect x="475" y="75" width="48" height="225"/>
    <rect x="535" y="125" width="33" height="175"/>
    <rect x="585" y="50" width="58" height="250"/>
    <rect x="658" y="115" width="36" height="185"/>
    <rect x="712" y="90" width="42" height="210"/>
    <rect x="768" y="140" width="35" height="160"/>
    <rect x="820" y="165" width="28" height="135"/>
  </g>
  <g fill="url(#win)">
    <rect x="312" y="200" width="4" height="6"/>
    <rect x="322" y="200" width="4" height="6"/>
    <rect x="592" y="180" width="4" height="6"/>
    <rect x="602" y="180" width="4" height="6"/>
    <rect x="220" y="220" width="3" height="5"/>
    <rect x="490" y="150" width="3" height="5"/>
  </g>
  <rect x="330" y="208" width="220" height="130" rx="6" fill="#111111" stroke="#333333" stroke-width="2"/>
  <rect x="338" y="216" width="204" height="108" fill="#050812"/>
  <text x="346" y="234" font-family="monospace" font-size="9" fill="#ff5252">ERR connection_reset</text>
  <text x="346" y="250" font-family="monospace" font-size="9" fill="#ff5252">ERR query_timeout 3000ms</text>
  <text x="346" y="266" font-family="monospace" font-size="8" fill="#ffab91">WARN heap 98%</text>
  <text x="750" y="48" font-family="monospace" font-size="28" fill="#69f0ae" font-weight="bold">03:17</text>
  <circle cx="770" cy="260" r="5" fill="#1b5e20" opacity="0.85"/>
  <text x="790" y="264" font-family="sans-serif" font-size="10" fill="#81c784">EXIT</text>
  <text x="440" y="308" text-anchor="middle" font-family="sans-serif" font-size="14" fill="#78909c">Ch.1 Dark hour / Beijing</text>
</svg>
