<?xml version="1.0" encoding="UTF-8"?>
<svg xmlns="http://www.w3.org/2000/svg" viewBox="0 0 900 340" width="900" height="340">
  <title>GDC keynote: spotlight on stage</title>
  <defs>
    <radialGradient id="spot" cx="50%" cy="0%" r="70%">
      <stop offset="0%" stop-color="#fffde7" stop-opacity="0.95"/>
      <stop offset="40%" stop-color="#ffe082" stop-opacity="0.25"/>
      <stop offset="100%" stop-color="#0d1b2a" stop-opacity="0"/>
    </radialGradient>
  </defs>
  <rect width="900" height="340" fill="#0a0e14"/>
  <rect x="0" y="220" width="900" height="120" fill="#121820"/>
  <g fill="#263238" opacity="0.9">
    <circle cx="120" cy="260" r="3"/>
    <circle cx="135" cy="268" r="2.5"/>
    <circle cx="150" cy="262" r="2.5"/>
    <circle cx="750" cy="258" r="3"/>
    <circle cx="768" cy="266" r="2.5"/>
    <circle cx="785" cy="260" r="2.5"/>
  </g>
  <ellipse cx="450" cy="0" rx="200" ry="280" fill="url(#spot)"/>
  <rect x="280" y="180" width="340" height="16" fill="#1e2930" stroke="#37474f"/>
  <ellipse cx="450" cy="200" rx="32" ry="8" fill="#263238"/>
  <circle cx="450" cy="130" r="18" fill="#37474f"/>
  <path d="M430,155 L470,155 L465,195 L435,195 Z" fill="#455a64"/>
  <rect x="520" y="95" width="140" height="85" rx="4" fill="#0d1117" stroke="#546e7a"/>
  <text x="532" y="125" font-family="monospace" font-size="8" fill="#58a6ff">Guardian</text>
  <text x="532" y="142" font-family="monospace" font-size="7" fill="#8b949e">cloud native</text>
  <text x="450" y="318" text-anchor="middle" font-family="sans-serif" font-size="13" fill="#78909c">Ch.3 GDC / Beijing</text>
</svg>
