<?xml version="1.0" encoding="UTF-8"?>
<svg xmlns="http://www.w3.org/2000/svg" viewBox="0 0 380 300" width="380" height="300" role="img">
  <defs>
    <marker id="ar" markerWidth="8" markerHeight="8" refX="7" refY="3" orient="auto"><polygon points="0 0,8 3,0 6" fill="#334155"/></marker>
  </defs>
  <text x="190" y="22" text-anchor="middle" fill="#0f172a" font-size="12" font-weight="bold" font-family="Microsoft YaHei, PingFang SC, Noto Sans CJK SC, sans-serif">Lambda 架构</text>
  <text x="190" y="44" text-anchor="middle" fill="#64748b" font-size="10" font-family="Microsoft YaHei, PingFang SC, Noto Sans CJK SC, sans-serif">输入数据</text>
  <line x1="190" y1="48" x2="120" y2="72" stroke="#334155" marker-end="url(#ar)"/>
  <line x1="190" y1="48" x2="260" y2="72" stroke="#334155" marker-end="url(#ar)"/>
  <rect fill="#e2e8f0" stroke="#334155" x="48" y="76" width="144" height="56" rx="4"/>
  <text x="120" y="96" text-anchor="middle" fill="#0f172a" font-size="10" font-weight="bold" font-family="Microsoft YaHei, PingFang SC, Noto Sans CJK SC, sans-serif">批处理层</text>
  <text x="120" y="112" text-anchor="middle" fill="#64748b" font-size="9" font-family="Microsoft YaHei, PingFang SC, Noto Sans CJK SC, sans-serif">全量</text>
  <text x="120" y="124" text-anchor="middle" fill="#64748b" font-size="8" font-family="sans-serif">MapReduce</text>
  <rect fill="#dbeafe" stroke="#1d4ed8" x="212" y="76" width="144" height="56" rx="4"/>
  <text x="284" y="96" text-anchor="middle" fill="#0f172a" font-size="10" font-weight="bold" font-family="Microsoft YaHei, PingFang SC, Noto Sans CJK SC, sans-serif">速度层</text>
  <text x="284" y="112" text-anchor="middle" fill="#64748b" font-size="9" font-family="Microsoft YaHei, PingFang SC, Noto Sans CJK SC, sans-serif">增量</text>
  <text x="284" y="124" text-anchor="middle" fill="#64748b" font-size="8" font-family="sans-serif">Storm/Flink</text>
  <line x1="120" y1="132" x2="120" y2="152" stroke="#334155" marker-end="url(#ar)"/>
  <line x1="284" y1="132" x2="284" y2="152" stroke="#334155" marker-end="url(#ar)"/>
  <rect fill="#fff" stroke="#64748b" x="48" y="156" width="144" height="32" rx="3"/><text x="120" y="176" text-anchor="middle" fill="#475569" font-size="10" font-family="Microsoft YaHei, PingFang SC, Noto Sans CJK SC, sans-serif">批处理视图</text>
  <rect fill="#fff" stroke="#64748b" x="212" y="156" width="144" height="32" rx="3"/><text x="284" y="176" text-anchor="middle" fill="#475569" font-size="10" font-family="Microsoft YaHei, PingFang SC, Noto Sans CJK SC, sans-serif">实时视图</text>
  <line x1="120" y1="188" x2="190" y2="216" stroke="#334155" marker-end="url(#ar)"/>
  <line x1="284" y1="188" x2="190" y2="216" stroke="#334155" marker-end="url(#ar)"/>
  <rect fill="#fef3c7" stroke="#b45309" x="118" y="220" width="144" height="44" rx="4"/>
  <text x="190" y="240" text-anchor="middle" fill="#0f172a" font-size="11" font-weight="bold" font-family="Microsoft YaHei, PingFang SC, Noto Sans CJK SC, sans-serif">服务层</text>
  <text x="190" y="256" text-anchor="middle" fill="#64748b" font-size="9" font-family="Microsoft YaHei, PingFang SC, Noto Sans CJK SC, sans-serif">合并结果</text>
</svg>
