<?xml version="1.0" encoding="UTF-8"?>
<svg xmlns="http://www.w3.org/2000/svg" viewBox="0 0 640 340" width="640" height="340" role="img">
  <defs>
    <marker id="ar" markerWidth="8" markerHeight="8" refX="7" refY="3" orient="auto"><polygon points="0 0,8 3,0 6" fill="#334155"/></marker>
  </defs>
  <rect fill="#f1f5f9" stroke="#334155" stroke-width="2" x="8" y="8" width="624" height="324" rx="6"/>
  <text x="320" y="32" text-anchor="middle" fill="#0f172a" font-size="14" font-weight="bold" font-family="Microsoft YaHei, PingFang SC, Noto Sans CJK SC, sans-serif">VOYAGER 系统架构</text>
  <line x1="8" y1="42" x2="632" y2="42" stroke="#64748b"/>
  <rect fill="#e2e8f0" stroke="#475569" x="250" y="56" width="140" height="48" rx="4"/>
  <text x="320" y="76" text-anchor="middle" fill="#0f172a" font-size="11" font-weight="bold" font-family="sans-serif">GPT-4 API</text>
  <text x="320" y="92" text-anchor="middle" fill="#64748b" font-size="9" font-family="Microsoft YaHei, PingFang SC, Noto Sans CJK SC, sans-serif">(黑盒调用)</text>
  <path d="M 520 200 L 520 80 L 395 80" fill="none" stroke="#64748b" stroke-width="1.5" stroke-dasharray="4 3" marker-end="url(#ar)"/>
  <text x="480" y="72" fill="#64748b" font-size="8" font-family="Microsoft YaHei, PingFang SC, Noto Sans CJK SC, sans-serif">反馈</text>
  <line x1="320" y1="104" x2="142" y2="128" stroke="#334155" stroke-width="1.5" marker-end="url(#ar)"/>
  <line x1="320" y1="104" x2="320" y2="128" stroke="#334155" stroke-width="1.5" marker-end="url(#ar)"/>
  <line x1="320" y1="104" x2="498" y2="128" stroke="#334155" stroke-width="1.5" marker-end="url(#ar)"/>
  <rect fill="#fff" stroke="#334155" x="72" y="132" width="140" height="44" rx="4"/>
  <text x="142" y="150" text-anchor="middle" fill="#0f172a" font-size="10" font-family="Microsoft YaHei, PingFang SC, Noto Sans CJK SC, sans-serif">自动课程生成</text>
  <text x="142" y="164" text-anchor="middle" fill="#64748b" font-size="8" font-family="Microsoft YaHei, PingFang SC, Noto Sans CJK SC, sans-serif">(GPT-4 提示)</text>
  <rect fill="#fff" stroke="#334155" x="250" y="132" width="140" height="44" rx="4"/>
  <text x="320" y="150" text-anchor="middle" fill="#0f172a" font-size="10" font-family="Microsoft YaHei, PingFang SC, Noto Sans CJK SC, sans-serif">代码生成</text>
  <text x="320" y="164" text-anchor="middle" fill="#64748b" font-size="8" font-family="Microsoft YaHei, PingFang SC, Noto Sans CJK SC, sans-serif">(GPT-4 提示)</text>
  <rect fill="#fff" stroke="#334155" x="428" y="132" width="140" height="44" rx="4"/>
  <text x="498" y="150" text-anchor="middle" fill="#0f172a" font-size="10" font-family="Microsoft YaHei, PingFang SC, Noto Sans CJK SC, sans-serif">自我验证</text>
  <text x="498" y="164" text-anchor="middle" fill="#64748b" font-size="8" font-family="Microsoft YaHei, PingFang SC, Noto Sans CJK SC, sans-serif">(GPT-4 提示)</text>
  <line x1="142" y1="176" x2="142" y2="200" stroke="#334155" marker-end="url(#ar)"/>
  <line x1="320" y1="176" x2="320" y2="200" stroke="#334155" marker-end="url(#ar)"/>
  <line x1="498" y1="176" x2="498" y2="200" stroke="#334155" marker-end="url(#ar)"/>
  <rect fill="#fef3c7" stroke="#b45309" x="72" y="204" width="140" height="40" rx="4"/>
  <text x="142" y="228" text-anchor="middle" fill="#0f172a" font-size="10" font-family="Microsoft YaHei, PingFang SC, Noto Sans CJK SC, sans-serif">任务队列</text>
  <rect fill="#dbeafe" stroke="#1d4ed8" x="250" y="204" width="140" height="40" rx="4"/>
  <text x="320" y="224" text-anchor="middle" fill="#0f172a" font-size="10" font-family="Microsoft YaHei, PingFang SC, Noto Sans CJK SC, sans-serif">Minecraft</text>
  <text x="320" y="238" text-anchor="middle" fill="#64748b" font-size="9" font-family="Microsoft YaHei, PingFang SC, Noto Sans CJK SC, sans-serif">环境执行</text>
  <rect fill="#dcfce7" stroke="#15803d" x="428" y="204" width="140" height="40" rx="4"/>
  <text x="498" y="224" text-anchor="middle" fill="#0f172a" font-size="10" font-family="Microsoft YaHei, PingFang SC, Noto Sans CJK SC, sans-serif">技能库</text>
  <text x="498" y="238" text-anchor="middle" fill="#64748b" font-size="9" font-family="Microsoft YaHei, PingFang SC, Noto Sans CJK SC, sans-serif">(向量数据库)</text>
</svg>
