<?xml version="1.0" encoding="UTF-8"?>
<svg xmlns="http://www.w3.org/2000/svg" viewBox="0 0 680 300" width="680" height="300" role="img" aria-labelledby="t">
  <title id="t">ReAct 工作流程</title>
  <defs>
    <marker id="ar" markerWidth="8" markerHeight="8" refX="7" refY="3" orient="auto">
      <polygon points="0 0, 8 3, 0 6" fill="#334155"/>
    </marker>
  </defs>
  <rect fill="#e2e8f0" stroke="#334155" stroke-width="2" x="6" y="6" width="668" height="288" rx="6"/>
  <text x="340" y="32" text-anchor="middle" fill="#0f172a" font-size="15" font-weight="bold" font-family="Microsoft YaHei, PingFang SC, Noto Sans CJK SC, sans-serif">ReAct 工作流程</text>
  <line x1="6" y1="42" x2="674" y2="42" stroke="#64748b" stroke-width="1.2"/>
  <g font-family="Microsoft YaHei, PingFang SC, Noto Sans CJK SC, sans-serif" font-size="12" fill="#0f172a">
    <rect fill="#fff" stroke="#334155" x="24" y="58" width="56" height="32" rx="3"/><text x="52" y="78" text-anchor="middle">问题</text>
    <line x1="80" y1="74" x2="106" y2="74" stroke="#334155" stroke-width="1.5" marker-end="url(#ar)"/>
    <rect fill="#fff" stroke="#334155" x="108" y="58" width="56" height="32" rx="3"/><text x="136" y="78" text-anchor="middle">思想1</text>
    <line x1="164" y1="74" x2="190" y2="74" stroke="#334155" stroke-width="1.5" marker-end="url(#ar)"/>
    <rect fill="#fff" stroke="#334155" x="192" y="58" width="56" height="32" rx="3"/><text x="220" y="78" text-anchor="middle">动作1</text>
    <line x1="248" y1="74" x2="274" y2="74" stroke="#334155" stroke-width="1.5" marker-end="url(#ar)"/>
    <rect fill="#fff" stroke="#334155" x="276" y="58" width="56" height="32" rx="3"/><text x="304" y="78" text-anchor="middle">观察1</text>
    <line x1="304" y1="90" x2="304" y2="118" stroke="#334155" stroke-width="1.5" marker-end="url(#ar)"/>
    <rect fill="#fff" stroke="#334155" x="276" y="122" width="56" height="32" rx="3"/><text x="304" y="142" text-anchor="middle">思想2</text>
    <line x1="332" y1="138" x2="358" y2="138" stroke="#334155" stroke-width="1.5" marker-end="url(#ar)"/>
    <rect fill="#fff" stroke="#334155" x="360" y="122" width="56" height="32" rx="3"/><text x="388" y="142" text-anchor="middle">动作2</text>
    <line x1="416" y1="138" x2="442" y2="138" stroke="#334155" stroke-width="1.5" marker-end="url(#ar)"/>
    <rect fill="#fff" stroke="#334155" x="444" y="122" width="56" height="32" rx="3"/><text x="472" y="142" text-anchor="middle">观察2</text>
    <line x1="472" y1="154" x2="472" y2="182" stroke="#334155" stroke-width="1.5" marker-end="url(#ar)"/>
    <rect fill="#fff" stroke="#334155" x="444" y="186" width="56" height="32" rx="3"/><text x="472" y="206" text-anchor="middle">思想3</text>
    <line x1="500" y1="202" x2="526" y2="202" stroke="#334155" stroke-width="1.5" marker-end="url(#ar)"/>
    <rect fill="#fff" stroke="#334155" x="528" y="186" width="56" height="32" rx="3"/><text x="556" y="206" text-anchor="middle">动作3</text>
    <line x1="584" y1="202" x2="610" y2="202" stroke="#334155" stroke-width="1.5" marker-end="url(#ar)"/>
    <rect fill="#fff" stroke="#334155" x="612" y="186" width="56" height="32" rx="3"/><text x="640" y="206" text-anchor="middle">答案</text>
  </g>
  <text x="340" y="258" text-anchor="middle" fill="#475569" font-size="11" font-family="Microsoft YaHei, PingFang SC, Noto Sans CJK SC, sans-serif">思想：推理规划（不改变环境）　动作：与环境交互　观察：环境反馈</text>
</svg>
